<?xml version="1.0" standalone="no"?>
<!DOCTYPE svg PUBLIC "-//W3C//DTD SVG 20010904//EN"
 "http://www.w3.org/TR/2001/REC-SVG-20010904/DTD/svg10.dtd">
<svg version="1.0" xmlns="http://www.w3.org/2000/svg"
 width="64.000000pt" height="64.000000pt" viewBox="0 0 64.000000 64.000000"
 preserveAspectRatio="xMidYMid meet">
<metadata>
Created by potrace 1.11, written by Peter Selinger 2001-2013
</metadata>
<g transform="translate(0.000000,64.000000) scale(0.100000,-0.100000)"
fill="#000000" stroke="none">
<path d="M94 457 c-2 -7 -3 -78 -2 -157 l3 -145 40 0 40 0 3 53 c2 32 8 52 15
52 7 -1 26 -24 42 -53 28 -48 33 -52 73 -55 52 -4 53 5 4 77 l-37 55 28 27
c45 45 31 115 -28 144 -42 19 -173 21 -181 2z m154 -82 c3 -28 -9 -42 -41 -50
-26 -7 -27 -6 -27 38 l0 44 33 -6 c21 -5 33 -13 35 -26z"/>
<path d="M370 310 l0 -160 100 0 100 0 0 35 0 35 -60 0 -60 0 0 125 0 125 -40
0 -40 0 0 -160z"/>
</g>
</svg>
